<svg width="147" height="25" viewBox="0 0 147 25" fill="none" xmlns="http://www.w3.org/2000/svg">
<path d="M0.844 24C0.801333 24 0.78 23.936 0.78 23.808C0.78 23.68 0.801333 23.616 0.844 23.616C1.65467 23.616 2.252 23.5627 2.636 23.456C3.02 23.3493 3.276 23.1467 3.404 22.848C3.55333 22.528 3.628 22.048 3.628 21.408V6.592C3.628 5.952 3.55333 5.48267 3.404 5.184C3.276 4.88533 3.02 4.68266 2.636 4.576C2.27333 4.448 1.68667 4.384 0.876 4.384C0.833333 4.384 0.812 4.32 0.812 4.192C0.812 4.064 0.833333 4 0.876 4H13.74C13.932 4 14.028 4.096 14.028 4.288L14.092 8.224C14.092 8.288 14.028 8.33067 13.9 8.352C13.7933 8.352 13.74 8.32 13.74 8.256C13.676 7.12533 13.3347 6.25067 12.716 5.632C12.0973 4.992 11.276 4.672 10.252 4.672H8.3C7.57467 4.672 7.03067 4.72533 6.668 4.832C6.30533 4.93867 6.04933 5.13067 5.9 5.408C5.75067 5.68533 5.676 6.09067 5.676 6.624V21.28C5.676 21.9627 5.76133 22.464 5.932 22.784C6.124 23.0827 6.48667 23.296 7.02 23.424C7.57467 23.552 8.428 23.616 9.58 23.616C9.644 23.616 9.676 23.68 9.676 23.808C9.676 23.936 9.644 24 9.58 24C8.70533 24 8.02267 23.9893 7.532 23.968L4.652 23.936L2.476 23.968C2.092 23.9893 1.548 24 0.844 24ZM12.108 16.928C12.108 15.9893 11.852 15.3173 11.34 14.912C10.8493 14.5067 10.0173 14.304 8.844 14.304H4.716V13.632H8.94C10.0707 13.632 10.8707 13.4613 11.34 13.12C11.8307 12.7573 12.076 12.1813 12.076 11.392C12.076 11.3493 12.14 11.328 12.268 11.328C12.396 11.328 12.46 11.3493 12.46 11.392L12.428 13.984C12.428 14.6027 12.4387 15.072 12.46 15.392L12.492 16.928C12.492 16.9707 12.428 16.992 12.3 16.992C12.172 16.992 12.108 16.9707 12.108 16.928ZM17.0613 24C16.9973 24 16.9653 23.936 16.9653 23.808C16.9653 23.68 16.9973 23.616 17.0613 23.616C17.6373 23.616 18.0639 23.5627 18.3413 23.456C18.6186 23.328 18.8106 23.1147 18.9173 22.816C19.0239 22.496 19.0773 22.0267 19.0773 21.408V4.864C19.0773 4.096 19.0026 3.54133 18.8533 3.2C18.7039 2.85867 18.4373 2.688 18.0533 2.688C17.7333 2.688 17.2426 2.83733 16.5813 3.136H16.5173C16.4533 3.136 16.3999 3.08267 16.3573 2.976C16.3359 2.86933 16.3573 2.80533 16.4213 2.784L20.5173 0.831999C20.5599 0.810666 20.6133 0.799999 20.6773 0.799999C20.7413 0.799999 20.8053 0.831999 20.8693 0.895998C20.9333 0.938665 20.9653 0.991999 20.9653 1.056V21.408C20.9653 22.0267 21.0079 22.4853 21.0933 22.784C21.1999 23.0827 21.3919 23.296 21.6693 23.424C21.9466 23.552 22.3733 23.616 22.9493 23.616C23.0133 23.616 23.0453 23.68 23.0453 23.808C23.0453 23.936 23.0133 24 22.9493 24C22.4799 24 22.0959 23.9893 21.7973 23.968L20.0052 23.936L18.2773 23.968C17.9786 23.9893 17.5733 24 17.0613 24ZM34.0793 24.192C33.9939 24.2347 33.9086 24.256 33.8233 24.256C33.5033 24.256 33.2259 24.0107 32.9913 23.52C32.7566 23.0293 32.6393 22.3787 32.6393 21.568V15.52C32.6393 13.1307 31.9673 11.936 30.6233 11.936C29.8979 11.936 29.3433 12.1813 28.9593 12.672C28.5966 13.1413 28.3513 13.6853 28.2233 14.304C28.1379 14.7093 28.0099 15.0293 27.8393 15.264C27.6899 15.4987 27.4126 15.616 27.0073 15.616C26.6659 15.616 26.3993 15.52 26.2073 15.328C26.0366 15.136 25.9513 14.912 25.9513 14.656C25.9513 14.144 26.2819 13.632 26.9433 13.12C27.6046 12.608 28.3939 12.1813 29.3113 11.84C30.2286 11.4987 31.0499 11.328 31.7753 11.328C32.6499 11.328 33.3113 11.6053 33.7593 12.16C34.2073 12.7147 34.4313 13.5147 34.4313 14.56V20.544C34.4313 21.2907 34.5273 21.8347 34.7193 22.176C34.9113 22.5173 35.2206 22.688 35.6473 22.688C36.0739 22.688 36.6073 22.5493 37.2473 22.272H37.3113C37.3966 22.272 37.4499 22.3253 37.4713 22.432C37.4926 22.5173 37.4606 22.5813 37.3753 22.624L34.0793 24.192ZM28.3193 24.224C27.5299 24.224 26.9113 24.0213 26.4633 23.616C26.0366 23.1893 25.8233 22.656 25.8233 22.016C25.8233 21.376 26.0793 20.8213 26.5913 20.352C27.1033 19.8827 27.9459 19.4347 29.1193 19.008L32.9593 17.568L33.0553 17.984L29.6633 19.296C29.0659 19.5307 28.6286 19.808 28.3513 20.128C28.0953 20.4267 27.9673 20.7893 27.9673 21.216C27.9673 21.728 28.1273 22.1653 28.4473 22.528C28.7886 22.8693 29.2259 23.04 29.7593 23.04C30.1859 23.04 30.6979 22.8693 31.2953 22.528L33.3113 21.312L33.3753 21.728L31.0073 23.264C30.4739 23.6053 30.0046 23.8507 29.5993 24C29.1939 24.1493 28.7673 24.224 28.3193 24.224ZM38.2695 24C38.2055 24 38.1735 23.936 38.1735 23.808C38.1735 23.68 38.2055 23.616 38.2695 23.616C38.8455 23.616 39.2722 23.5627 39.5495 23.456C39.8268 23.328 40.0188 23.1147 40.1255 22.816C40.2322 22.496 40.2855 22.0267 40.2855 21.408V4.864C40.2855 4.096 40.2108 3.54133 40.0615 3.2C39.9122 2.85867 39.6455 2.688 39.2615 2.688C38.9415 2.688 38.4508 2.83733 37.7895 3.136H37.7255C37.6615 3.136 37.6082 3.08267 37.5655 2.976C37.5228 2.86933 37.5442 2.80533 37.6295 2.784L41.6295 0.831999L41.7895 0.799999C41.8535 0.799999 41.9175 0.831999 41.9815 0.895998C42.0455 0.938665 42.0775 0.991999 42.0775 1.056V21.408C42.0775 22.048 42.1308 22.5173 42.2375 22.816C42.3442 23.1147 42.5362 23.328 42.8135 23.456C43.0908 23.5627 43.5175 23.616 44.0935 23.616C44.1575 23.616 44.1895 23.68 44.1895 23.808C44.1895 23.936 44.1575 24 44.0935 24C43.6028 24 43.2082 23.9893 42.9095 23.968L41.1815 23.936L39.4535 23.968C39.1548 23.9893 38.7602 24 38.2695 24ZM46.3015 24C46.2588 24 46.2375 23.936 46.2375 23.808C46.2375 23.68 46.2588 23.616 46.3015 23.616C47.3682 23.616 47.9015 23.4133 47.9015 23.008C47.9015 22.816 47.8055 22.5813 47.6135 22.304L43.5495 16.768L45.0535 15.68L49.2135 21.408C50.2802 22.88 51.5068 23.616 52.8935 23.616C52.9575 23.616 52.9895 23.68 52.9895 23.808C52.9895 23.936 52.9575 24 52.8935 24C52.4028 24 52.0082 23.9893 51.7095 23.968L49.9815 23.936L47.6775 23.968C47.3362 23.9893 46.8775 24 46.3015 24ZM41.3735 18.272L46.3655 14.24C47.0482 13.7067 47.3895 13.2373 47.3895 12.832C47.3895 12.2987 46.7815 12.032 45.5655 12.032C45.5015 12.032 45.4695 11.968 45.4695 11.84C45.4695 11.712 45.5015 11.648 45.5655 11.648C46.1415 11.648 46.5788 11.6587 46.8775 11.68L49.2135 11.712L51.3575 11.68C51.6348 11.6587 52.0188 11.648 52.5095 11.648C52.5735 11.648 52.6055 11.712 52.6055 11.84C52.6055 11.968 52.5735 12.032 52.5095 12.032C51.7202 12.032 50.8455 12.224 49.8855 12.608C48.9255 12.992 47.9655 13.568 47.0055 14.336L41.5015 18.656L41.3735 18.272ZM59.6018 24.384C58.3644 24.384 57.3084 24.096 56.4338 23.52C55.5591 22.944 54.8871 22.1867 54.4178 21.248C53.9698 20.3093 53.7458 19.3067 53.7458 18.24C53.7458 16.9813 54.0444 15.8293 54.6418 14.784C55.2391 13.7173 56.0498 12.8853 57.0738 12.288C58.1191 11.6693 59.2604 11.36 60.4978 11.36C61.6924 11.36 62.6098 11.68 63.2498 12.32C63.8898 12.96 64.2098 13.856 64.2098 15.008C64.2098 15.3067 64.1778 15.52 64.1138 15.648C64.0711 15.776 63.9751 15.84 63.8258 15.84H62.0338L62.0658 15.264C62.0658 14.1973 61.8311 13.3867 61.3618 12.832C60.8924 12.2773 60.2524 12 59.4418 12C58.3111 12 57.4258 12.448 56.7858 13.344C56.1671 14.24 55.8578 15.4667 55.8578 17.024C55.8578 18.88 56.2951 20.384 57.1698 21.536C58.0444 22.688 59.2711 23.264 60.8498 23.264C61.4898 23.264 62.0338 23.1787 62.4818 23.008C62.9511 22.8373 63.4738 22.5707 64.0498 22.208H64.0818C64.1458 22.208 64.1991 22.2507 64.2418 22.336C64.3058 22.4 64.3164 22.464 64.2738 22.528C62.8231 23.7653 61.2658 24.384 59.6018 24.384ZM55.2498 15.456L62.5138 15.328V15.84L55.2818 15.872L55.2498 15.456ZM66.6803 24C66.6163 24 66.5843 23.936 66.5843 23.808C66.5843 23.68 66.6163 23.616 66.6803 23.616C67.3203 23.616 67.7896 23.5627 68.0883 23.456C68.3869 23.328 68.5896 23.1147 68.6963 22.816C68.8243 22.5173 68.8883 22.048 68.8883 21.408V14.208C68.8883 13.6533 68.8349 13.2693 68.7283 13.056C68.6216 12.8213 68.4189 12.672 68.1203 12.608C67.8216 12.5227 67.2989 12.48 66.5523 12.48C66.4883 12.48 66.4563 12.416 66.4563 12.288C66.4563 12.1387 66.4883 12.064 66.5523 12.064C67.4269 12.064 68.0136 11.968 68.3123 11.776C68.6323 11.5627 68.8029 11.1787 68.8243 10.624C68.9309 7.168 69.5603 4.66133 70.7123 3.104C71.8856 1.54667 73.6029 0.768 75.8643 0.768C76.9523 0.768 77.8376 0.938666 78.5203 1.28C79.2243 1.6 79.5763 1.99467 79.5763 2.464C79.5763 2.784 79.4589 3.04 79.2243 3.232C79.0109 3.40267 78.7549 3.488 78.4563 3.488C78.2003 3.488 77.9763 3.424 77.7843 3.296C77.6136 3.168 77.4216 2.95466 77.2083 2.656C76.8669 2.208 76.5043 1.87733 76.1203 1.664C75.7576 1.42933 75.2989 1.312 74.7443 1.312C73.5069 1.312 72.5256 2.02667 71.8003 3.456C71.0749 4.88533 70.7123 7.05067 70.7123 9.952V21.408C70.7123 22.0693 70.7869 22.5493 70.9363 22.848C71.0856 23.1467 71.3736 23.3493 71.8003 23.456C72.2269 23.5627 72.9096 23.616 73.8483 23.616C73.9123 23.616 73.9443 23.68 73.9443 23.808C73.9443 23.936 73.9123 24 73.8483 24L71.8003 23.968C71.3523 23.9467 70.6696 23.936 69.7523 23.936L67.9603 23.968C67.6616 23.9893 67.2349 24 66.6803 24ZM74.7123 13.216C73.3469 12.8747 71.7469 12.704 69.9123 12.704V12C71.2136 12 72.8456 11.8933 74.8083 11.68C74.8723 11.68 74.9256 11.7547 74.9683 11.904C75.0109 12.0533 75.0323 12.2347 75.0323 12.448C75.0323 12.6187 75.0003 12.8 74.9363 12.992C74.8723 13.1627 74.7976 13.2373 74.7123 13.216ZM79.8543 14.976C80.9849 13.568 81.8596 12.6187 82.4783 12.128C83.0969 11.616 83.6729 11.36 84.2063 11.36C84.6756 11.36 85.1236 11.488 85.5503 11.744C85.9769 12 86.1903 12.3093 86.1903 12.672C86.1903 12.9493 86.0943 13.184 85.9023 13.376C85.7103 13.568 85.4543 13.664 85.1343 13.664C84.9423 13.664 84.7716 13.632 84.6223 13.568C84.4943 13.4827 84.3343 13.3653 84.1423 13.216C83.9502 13.0453 83.7689 12.9173 83.5983 12.832C83.4276 12.7467 83.2249 12.704 82.9903 12.704C82.6703 12.704 82.3183 12.864 81.9343 13.184C81.5503 13.504 80.8996 14.2187 79.9823 15.328L79.8543 14.976ZM76.8463 24C76.7823 24 76.7503 23.936 76.7503 23.808C76.7503 23.68 76.7823 23.616 76.8463 23.616C77.4223 23.616 77.8489 23.5627 78.1263 23.456C78.4036 23.328 78.5849 23.1147 78.6703 22.816C78.7769 22.5173 78.8303 22.048 78.8303 21.408V15.072C78.8303 14.3467 78.7449 13.824 78.5743 13.504C78.4036 13.184 78.1156 13.024 77.7103 13.024C77.3689 13.024 76.7929 13.184 75.9823 13.504H75.9183C75.8329 13.504 75.7689 13.4613 75.7263 13.376C75.7049 13.2693 75.7369 13.1947 75.8223 13.152L79.5343 11.392C79.5769 11.3707 79.6409 11.36 79.7263 11.36C79.9183 11.36 80.1209 11.6053 80.3343 12.096C80.5476 12.5867 80.6543 13.216 80.6543 13.984V21.408C80.6543 22.048 80.7289 22.5173 80.8783 22.816C81.0489 23.1147 81.3476 23.328 81.7743 23.456C82.2009 23.5627 82.8623 23.616 83.7583 23.616C83.8436 23.616 83.8863 23.68 83.8863 23.808C83.8863 23.936 83.8436 24 83.7583 24C83.0756 24 82.5316 23.9893 82.1263 23.968L79.7583 23.936L77.9983 23.968C77.7209 23.9893 77.3369 24 76.8463 24ZM96.6105 24.192C96.5252 24.2347 96.4398 24.256 96.3545 24.256C96.0345 24.256 95.7572 24.0107 95.5225 23.52C95.2878 23.0293 95.1705 22.3787 95.1705 21.568V15.52C95.1705 13.1307 94.4985 11.936 93.1545 11.936C92.4292 11.936 91.8745 12.1813 91.4905 12.672C91.1278 13.1413 90.8825 13.6853 90.7545 14.304C90.6692 14.7093 90.5412 15.0293 90.3705 15.264C90.2212 15.4987 89.9438 15.616 89.5385 15.616C89.1972 15.616 88.9305 15.52 88.7385 15.328C88.5678 15.136 88.4825 14.912 88.4825 14.656C88.4825 14.144 88.8132 13.632 89.4745 13.12C90.1358 12.608 90.9252 12.1813 91.8425 11.84C92.7598 11.4987 93.5812 11.328 94.3065 11.328C95.1812 11.328 95.8425 11.6053 96.2905 12.16C96.7385 12.7147 96.9625 13.5147 96.9625 14.56V20.544C96.9625 21.2907 97.0585 21.8347 97.2505 22.176C97.4425 22.5173 97.7518 22.688 98.1785 22.688C98.6052 22.688 99.1385 22.5493 99.7785 22.272H99.8425C99.9278 22.272 99.9812 22.3253 100.003 22.432C100.024 22.5173 99.9918 22.5813 99.9065 22.624L96.6105 24.192ZM90.8505 24.224C90.0612 24.224 89.4425 24.0213 88.9945 23.616C88.5678 23.1893 88.3545 22.656 88.3545 22.016C88.3545 21.376 88.6105 20.8213 89.1225 20.352C89.6345 19.8827 90.4772 19.4347 91.6505 19.008L95.4905 17.568L95.5865 17.984L92.1945 19.296C91.5972 19.5307 91.1598 19.808 90.8825 20.128C90.6265 20.4267 90.4985 20.7893 90.4985 21.216C90.4985 21.728 90.6585 22.1653 90.9785 22.528C91.3198 22.8693 91.7572 23.04 92.2905 23.04C92.7172 23.04 93.2292 22.8693 93.8265 22.528L95.8425 21.312L95.9065 21.728L93.5385 23.264C93.0052 23.6053 92.5358 23.8507 92.1305 24C91.7252 24.1493 91.2985 24.224 90.8505 24.224ZM117.889 24C117.825 24 117.793 23.936 117.793 23.808C117.793 23.68 117.825 23.616 117.889 23.616C118.465 23.616 118.891 23.5627 119.169 23.456C119.446 23.328 119.638 23.1147 119.745 22.816C119.851 22.496 119.905 22.0267 119.905 21.408V16.32C119.905 15.0613 119.681 14.1227 119.233 13.504C118.785 12.8853 118.091 12.576 117.153 12.576C116.406 12.576 115.638 12.832 114.849 13.344C114.081 13.8347 113.419 14.5067 112.865 15.36L112.737 14.976C113.633 13.7173 114.518 12.8 115.393 12.224C116.289 11.6267 117.227 11.328 118.209 11.328C119.339 11.328 120.203 11.648 120.801 12.288C121.398 12.928 121.697 13.8987 121.697 15.2V21.408C121.697 22.048 121.75 22.5173 121.857 22.816C121.963 23.1147 122.155 23.328 122.433 23.456C122.71 23.5627 123.137 23.616 123.713 23.616C123.777 23.616 123.809 23.68 123.809 23.808C123.809 23.936 123.777 24 123.713 24C123.222 24 122.827 23.9893 122.529 23.968L120.801 23.936L119.073 23.968C118.774 23.9893 118.379 24 117.889 24ZM109.633 24C109.569 24 109.537 23.936 109.537 23.808C109.537 23.68 109.569 23.616 109.633 23.616C110.209 23.616 110.635 23.5627 110.913 23.456C111.19 23.328 111.371 23.1147 111.457 22.816C111.563 22.5173 111.617 22.048 111.617 21.408V16.32C111.617 15.0613 111.393 14.1227 110.945 13.504C110.497 12.8853 109.814 12.576 108.897 12.576C108.129 12.576 107.361 12.832 106.593 13.344C105.825 13.8347 105.163 14.5067 104.609 15.36L104.481 14.976C105.377 13.7173 106.262 12.8 107.137 12.224C108.033 11.6267 108.961 11.328 109.921 11.328C111.051 11.328 111.915 11.648 112.513 12.288C113.131 12.928 113.441 13.8773 113.441 15.136V21.408C113.441 22.048 113.494 22.5173 113.601 22.816C113.707 23.1147 113.899 23.328 114.177 23.456C114.454 23.5627 114.881 23.616 115.457 23.616C115.521 23.616 115.553 23.68 115.553 23.808C115.553 23.936 115.521 24 115.457 24C114.966 24 114.571 23.9893 114.273 23.968L112.545 23.936L110.785 23.968C110.507 23.9893 110.123 24 109.633 24ZM101.409 24C101.345 24 101.313 23.936 101.313 23.808C101.313 23.68 101.345 23.616 101.409 23.616C101.985 23.616 102.411 23.5627 102.689 23.456C102.966 23.328 103.147 23.1147 103.233 22.816C103.339 22.5173 103.393 22.048 103.393 21.408V15.072C103.393 14.3467 103.307 13.824 103.137 13.504C102.966 13.184 102.678 13.024 102.273 13.024C101.931 13.024 101.355 13.184 100.545 13.504H100.481C100.395 13.504 100.331 13.4613 100.289 13.376C100.267 13.2693 100.299 13.1947 100.385 13.152L104.097 11.392C104.139 11.3707 104.203 11.36 104.289 11.36C104.481 11.36 104.683 11.6053 104.897 12.096C105.11 12.5867 105.217 13.216 105.217 13.984V21.408C105.217 22.048 105.259 22.5173 105.345 22.816C105.451 23.1147 105.643 23.328 105.921 23.456C106.198 23.5627 106.625 23.616 107.201 23.616C107.265 23.616 107.297 23.68 107.297 23.808C107.297 23.936 107.265 24 107.201 24C106.71 24 106.326 23.9893 106.049 23.968L104.321 23.936L102.561 23.968C102.283 23.9893 101.899 24 101.409 24ZM131.383 24.384C130.146 24.384 129.09 24.096 128.215 23.52C127.34 22.944 126.668 22.1867 126.199 21.248C125.751 20.3093 125.527 19.3067 125.527 18.24C125.527 16.9813 125.826 15.8293 126.423 14.784C127.02 13.7173 127.831 12.8853 128.855 12.288C129.9 11.6693 131.042 11.36 132.279 11.36C133.474 11.36 134.391 11.68 135.031 12.32C135.671 12.96 135.991 13.856 135.991 15.008C135.991 15.3067 135.959 15.52 135.895 15.648C135.852 15.776 135.756 15.84 135.607 15.84H133.815L133.847 15.264C133.847 14.1973 133.612 13.3867 133.143 12.832C132.674 12.2773 132.034 12 131.223 12C130.092 12 129.207 12.448 128.567 13.344C127.948 14.24 127.639 15.4667 127.639 17.024C127.639 18.88 128.076 20.384 128.951 21.536C129.826 22.688 131.052 23.264 132.631 23.264C133.271 23.264 133.815 23.1787 134.263 23.008C134.732 22.8373 135.255 22.5707 135.831 22.208H135.863C135.927 22.208 135.98 22.2507 136.023 22.336C136.087 22.4 136.098 22.464 136.055 22.528C134.604 23.7653 133.047 24.384 131.383 24.384ZM127.031 15.456L134.295 15.328V15.84L127.063 15.872L127.031 15.456ZM140.638 13.6C140.638 14.3467 140.883 14.944 141.374 15.392C141.864 15.8187 142.59 16.2773 143.55 16.768C144.296 17.152 144.872 17.4827 145.278 17.76C145.704 18.0373 146.067 18.4 146.366 18.848C146.664 19.296 146.814 19.84 146.814 20.48C146.814 21.568 146.408 22.4853 145.598 23.232C144.787 23.9787 143.688 24.352 142.302 24.352C141.171 24.352 140.147 24.032 139.23 23.392C139.102 23.3067 139.038 23.1787 139.038 23.008L138.974 20.512C138.974 20.448 139.027 20.416 139.134 20.416C139.262 20.3947 139.336 20.416 139.358 20.48C139.763 21.568 140.286 22.3893 140.926 22.944C141.587 23.4773 142.344 23.744 143.198 23.744C143.859 23.744 144.371 23.5947 144.734 23.296C145.118 22.976 145.31 22.5067 145.31 21.888C145.31 21.2907 145.171 20.7893 144.894 20.384C144.638 19.9573 144.318 19.6267 143.934 19.392C143.55 19.136 143.027 18.8373 142.366 18.496C141.662 18.1547 141.096 17.8453 140.67 17.568C140.264 17.2907 139.912 16.928 139.614 16.48C139.336 16.032 139.198 15.4773 139.198 14.816C139.198 13.664 139.624 12.7893 140.478 12.192C141.352 11.5733 142.376 11.264 143.55 11.264C144.403 11.264 145.182 11.424 145.885 11.744C146.014 11.7867 146.088 11.84 146.11 11.904C146.152 11.9467 146.174 12.0107 146.174 12.096C146.174 12.5227 146.163 12.8533 146.142 13.088L146.11 14.432C146.11 14.4747 146.046 14.496 145.918 14.496C145.79 14.496 145.726 14.4747 145.726 14.432C145.726 13.7493 145.363 13.152 144.638 12.64C143.934 12.128 143.187 11.872 142.398 11.872C141.843 11.872 141.406 12.0213 141.086 12.32C140.787 12.5973 140.638 13.024 140.638 13.6Z" fill="#4d4f39"/>
</svg>
