<svg width="52" height="414" viewBox="0 0 52 414" fill="none" xmlns="http://www.w3.org/2000/svg">
<path d="M46.12 30.6448H36.136V12.5968H28.2L28.2 25.9088L18.664 25.9088V12.5968H1V0.0527501L46.12 0.0527501V30.6448ZM48.36 48.4718H1V35.9278H48.36V48.4718ZM18.984 53.5673C22.696 53.5673 25.9387 54.2286 28.712 55.5513C31.4853 56.9166 33.6187 58.7513 35.112 61.0553C36.6053 63.4019 37.352 66.0046 37.352 68.8633C37.352 71.3379 36.8613 73.4713 35.88 75.2633C34.8987 77.0553 33.576 78.4419 31.912 79.4233H36.904L36.904 91.9673H1V79.4233H5.992C4.328 78.4419 3.00533 77.0339 2.024 75.1993C1.04267 73.4073 0.552 71.2953 0.552 68.8633C0.552 66.0046 1.29867 63.4019 2.792 61.0553C4.28533 58.7513 6.41867 56.9166 9.192 55.5513C12.008 54.2286 15.272 53.5673 18.984 53.5673ZM18.984 79.4233C21.288 79.4233 23.1013 78.7833 24.424 77.5033C25.7467 76.2659 26.408 74.7299 26.408 72.8953C26.408 71.0179 25.7467 69.4606 24.424 68.2233C23.144 66.9859 21.3307 66.3673 18.984 66.3673C16.68 66.3673 14.8453 66.9859 13.48 68.2233C12.1573 69.4606 11.496 71.0179 11.496 72.8953C11.496 74.7299 12.1573 76.2659 13.48 77.5033C14.8027 78.7833 16.6373 79.4233 18.984 79.4233ZM1 121.579L15.72 111.659H1V99.1153H48.36V111.659H22.824L36.904 121.579V136.619L18.856 122.475L1 136.875V121.579ZM19.368 174.857C18.3867 174.857 17.4053 174.793 16.424 174.665L16.424 150.921C14.4613 151.049 12.9893 151.582 12.008 152.521C11.0693 153.502 10.6 154.739 10.6 156.233C10.6 158.323 11.5387 159.817 13.416 160.713L13.416 174.089C10.9413 173.534 8.72267 172.446 6.76 170.825C4.84 169.246 3.32533 167.241 2.216 164.809C1.10667 162.377 0.552 159.689 0.552 156.745C0.552 153.203 1.29867 150.046 2.792 147.273C4.28533 144.542 6.41867 142.387 9.192 140.809C11.9653 139.273 15.2293 138.505 18.984 138.505C22.7387 138.505 25.9813 139.273 28.712 140.809C31.4853 142.345 33.6187 144.478 35.112 147.209C36.6053 149.982 37.352 153.161 37.352 156.745C37.352 160.286 36.6267 163.422 35.176 166.153C33.7253 168.883 31.6347 171.017 28.904 172.553C26.216 174.089 23.0373 174.857 19.368 174.857ZM22.504 162.057C24.04 162.057 25.2347 161.545 26.088 160.521C26.984 159.497 27.432 158.217 27.432 156.681C27.432 155.145 27.0053 153.886 26.152 152.905C25.3413 151.923 24.1253 151.283 22.504 150.985V162.057ZM26.472 199.382L26.472 193.75H1V181.142H26.472V177.238H36.904V181.142H37.224C41.832 181.142 45.352 182.486 47.784 185.174C50.2587 187.905 51.496 191.809 51.496 196.886C51.496 197.91 51.4747 198.7 51.432 199.254H40.744C40.7867 198.913 40.808 198.444 40.808 197.846C40.808 196.481 40.488 195.478 39.848 194.838C39.2507 194.198 38.2693 193.836 36.904 193.75V199.382H26.472ZM30.568 216.409C32.616 217.817 34.2373 219.524 35.432 221.529C36.6267 223.535 37.224 225.689 37.224 227.993H23.848V224.473C23.848 221.743 23.3147 219.716 22.248 218.393C21.1813 217.071 19.3253 216.409 16.68 216.409H1V203.865H36.904V216.409H30.568ZM18.984 230.442C22.696 230.442 25.9387 231.104 28.712 232.426C31.4853 233.792 33.6187 235.626 35.112 237.93C36.6053 240.277 37.352 242.88 37.352 245.738C37.352 248.213 36.8613 250.346 35.88 252.138C34.8987 253.93 33.576 255.317 31.912 256.298H36.904V268.842H1V256.298H5.992C4.328 255.317 3.00533 253.909 2.024 252.074C1.04267 250.282 0.552 248.17 0.552 245.738C0.552 242.88 1.29867 240.277 2.792 237.93C4.28533 235.626 6.41867 233.792 9.192 232.426C12.008 231.104 15.272 230.442 18.984 230.442ZM18.984 256.298C21.288 256.298 23.1013 255.658 24.424 254.378C25.7467 253.141 26.408 251.605 26.408 249.77C26.408 247.893 25.7467 246.336 24.424 245.098C23.144 243.861 21.3307 243.242 18.984 243.242C16.68 243.242 14.8453 243.861 13.48 245.098C12.1573 246.336 11.496 247.893 11.496 249.77C11.496 251.605 12.1573 253.141 13.48 254.378C14.8027 255.658 16.6373 256.298 18.984 256.298ZM37.224 322.902C37.224 327.425 35.8587 330.966 33.128 333.526C30.3973 336.129 26.664 337.43 21.928 337.43H1V324.886H20.264C22.184 324.886 23.6773 324.353 24.744 323.286C25.8107 322.22 26.344 320.769 26.344 318.934C26.344 317.1 25.8107 315.649 24.744 314.582C23.6773 313.516 22.184 312.982 20.264 312.982H1V300.438H20.264C22.184 300.438 23.6773 299.905 24.744 298.838C25.8107 297.814 26.344 296.385 26.344 294.55C26.344 292.673 25.8107 291.201 24.744 290.134C23.6773 289.068 22.184 288.534 20.264 288.534H1L1 275.99H36.904V288.534H32.168C33.704 289.644 34.92 291.073 35.816 292.822C36.7547 294.614 37.224 296.662 37.224 298.966C37.224 301.612 36.648 303.958 35.496 306.006C34.344 308.097 32.7227 309.74 30.632 310.934C32.5947 312.214 34.1733 313.9 35.368 315.99C36.6053 318.081 37.224 320.385 37.224 322.902ZM19.368 378.607C18.3867 378.607 17.4053 378.543 16.424 378.415V354.671C14.4613 354.799 12.9893 355.332 12.008 356.271C11.0693 357.252 10.6 358.489 10.6 359.983C10.6 362.073 11.5387 363.567 13.416 364.463V377.839C10.9413 377.284 8.72267 376.196 6.76 374.575C4.84 372.996 3.32533 370.991 2.216 368.559C1.10667 366.127 0.552 363.439 0.552 360.495C0.552 356.953 1.29867 353.796 2.792 351.023C4.28533 348.292 6.41867 346.137 9.192 344.559C11.9653 343.023 15.2293 342.255 18.984 342.255C22.7387 342.255 25.9813 343.023 28.712 344.559C31.4853 346.095 33.6187 348.228 35.112 350.959C36.6053 353.732 37.352 356.911 37.352 360.495C37.352 364.036 36.6267 367.172 35.176 369.903C33.7253 372.633 31.6347 374.767 28.904 376.303C26.216 377.839 23.0373 378.607 19.368 378.607ZM22.504 365.807C24.04 365.807 25.2347 365.295 26.088 364.271C26.984 363.247 27.432 361.967 27.432 360.431C27.432 358.895 27.0053 357.636 26.152 356.655C25.3413 355.673 24.1253 355.033 22.504 354.735V365.807ZM0.552 399.036C0.552 395.794 1.08533 392.892 2.152 390.332C3.26133 387.815 4.75467 385.81 6.632 384.316C8.552 382.866 10.7067 382.055 13.096 381.884V394.044C11.944 394.215 11.048 394.748 10.408 395.644C9.768 396.54 9.448 397.65 9.448 398.972C9.448 399.996 9.66133 400.807 10.088 401.404C10.5147 402.002 11.0693 402.3 11.752 402.3C12.648 402.3 13.3093 401.81 13.736 400.828C14.1627 399.847 14.632 398.226 15.144 395.964C15.656 393.404 16.232 391.271 16.872 389.564C17.512 387.858 18.5573 386.364 20.008 385.084C21.4587 383.847 23.4213 383.228 25.896 383.228C28.0293 383.228 29.9493 383.804 31.656 384.956C33.4053 386.108 34.792 387.794 35.816 390.012C36.84 392.274 37.352 394.983 37.352 398.14C37.352 402.834 36.2 406.524 33.896 409.212C31.592 411.9 28.5627 413.458 24.808 413.884V402.556C25.96 402.343 26.8347 401.831 27.432 401.02C28.072 400.252 28.392 399.207 28.392 397.884C28.392 396.86 28.2 396.071 27.816 395.516C27.432 395.004 26.8987 394.748 26.216 394.748C25.3627 394.748 24.7013 395.239 24.232 396.22C23.8053 397.202 23.3573 398.78 22.888 400.956C22.3333 403.559 21.7147 405.714 21.032 407.42C20.3493 409.17 19.24 410.684 17.704 411.964C16.2107 413.287 14.1627 413.948 11.56 413.948C9.46933 413.948 7.592 413.33 5.928 412.092C4.264 410.898 2.94133 409.17 1.96 406.908C1.02133 404.69 0.552 402.066 0.552 399.036Z" fill="#5B5041"/>
</svg>
